<mxfile host="app.diagrams.net" modified="2021-12-27T07:50:56.112Z" agent="5.0 (Windows NT 10.0; Win64; x64) AppleWebKit/537.36 (KHTML, like Gecko) Chrome/92.0.4515.159 Safari/537.36" etag="WZ67dpS8md8V9lUPA4lF" version="16.1.0" type="github">
  <diagram id="9fFKCSjiny5513VRg1FF" name="第 1 页">
    <mxGraphModel dx="782" dy="514" grid="1" gridSize="10" guides="1" tooltips="1" connect="1" arrows="1" fold="1" page="1" pageScale="1" pageWidth="827" pageHeight="1169" math="0" shadow="0">
      <root>
        <mxCell id="0" />
        <mxCell id="1" parent="0" />
        <mxCell id="ZgWXK0DPelpo1f2GpmqN-3" style="edgeStyle=orthogonalEdgeStyle;rounded=0;orthogonalLoop=1;jettySize=auto;html=1;" edge="1" parent="1" source="ZgWXK0DPelpo1f2GpmqN-1" target="ZgWXK0DPelpo1f2GpmqN-2">
          <mxGeometry relative="1" as="geometry" />
        </mxCell>
        <mxCell id="ZgWXK0DPelpo1f2GpmqN-1" value="&lt;b&gt;统一预约&lt;/b&gt;" style="rounded=0;whiteSpace=wrap;html=1;fillColor=#60a917;fontColor=#ffffff;strokeColor=#2D7600;" vertex="1" parent="1">
          <mxGeometry x="80" y="50" width="120" height="60" as="geometry" />
        </mxCell>
        <mxCell id="ZgWXK0DPelpo1f2GpmqN-5" style="edgeStyle=orthogonalEdgeStyle;rounded=0;orthogonalLoop=1;jettySize=auto;html=1;exitX=0.5;exitY=1;exitDx=0;exitDy=0;entryX=0.5;entryY=0;entryDx=0;entryDy=0;" edge="1" parent="1" source="ZgWXK0DPelpo1f2GpmqN-2" target="ZgWXK0DPelpo1f2GpmqN-4">
          <mxGeometry relative="1" as="geometry" />
        </mxCell>
        <mxCell id="ZgWXK0DPelpo1f2GpmqN-2" value="&lt;b&gt;取号机对接&lt;br&gt;叫号方案、规则&lt;br&gt;&lt;/b&gt;" style="rounded=0;whiteSpace=wrap;html=1;fillColor=#60a917;fontColor=#ffffff;strokeColor=#2D7600;" vertex="1" parent="1">
          <mxGeometry x="80" y="150" width="120" height="60" as="geometry" />
        </mxCell>
        <mxCell id="ZgWXK0DPelpo1f2GpmqN-4" value="&lt;b&gt;叫号触发&lt;br&gt;&lt;/b&gt;" style="rounded=0;whiteSpace=wrap;html=1;fillColor=#60a917;fontColor=#ffffff;strokeColor=#2D7600;" vertex="1" parent="1">
          <mxGeometry x="80" y="250" width="120" height="60" as="geometry" />
        </mxCell>
      </root>
    </mxGraphModel>
  </diagram>
</mxfile>
